<svg version="1.0" xmlns="http://www.w3.org/2000/svg"
 width="512.000000pt" height="512.000000pt" viewBox="0 0 512.000000 512.000000"
 preserveAspectRatio="xMidYMid meet">

<g transform="translate(0.000000,512.000000) scale(0.100000,-0.100000)"
fill="#4f71d5" stroke="none">
<path d="M1455 4639 c-219 -19 -505 -86 -706 -165 -118 -46 -288 -131 -399
-199 -132 -80 -335 -225 -334 -239 1 -10 355 -525 414 -602 16 -22 17 -22 166
82 155 107 312 195 430 240 107 41 258 83 267 74 5 -4 6 -428 4 -941 -4 -898
-5 -938 -25 -1044 -58 -302 -149 -510 -348 -795 -45 -63 -84 -120 -87 -126 -6
-11 600 -445 620 -444 9 1 28 27 159 222 188 278 296 520 373 829 67 268 65
225 71 1334 l5 1010 377 3 377 2 4 -1202 c3 -1176 4 -1205 24 -1293 52 -227
156 -418 313 -575 129 -130 278 -223 448 -280 403 -135 841 -38 1150 254 232
219 362 524 362 848 l0 78 -389 0 -389 0 -4 -97 c-2 -83 -7 -107 -31 -155
-116 -235 -426 -285 -603 -96 -25 27 -57 74 -72 106 l-27 57 -3 1178 -2 1177
340 0 340 0 0 385 0 385 -1362 -1 c-750 -1 -1408 -6 -1463 -10z"/>
</g>
</svg>
